  0
SECTION
  2
HEADER
  9
$ACADVER
  1
AC1027
  9
$ACADMAINTVER
 70
105
  9
$DWGCODEPAGE
  3
ANSI_1252
  9
$LASTSAVEDBY
  1
ezdxf
  9
$REQUIREDVERSIONS
160
0
  9
$INSBASE
 10
0.0
 20
0.0
 30
0.0
  9
$EXTMIN
 10
1e+20
 20
1e+20
 30
1e+20
  9
$EXTMAX
 10
-1e+20
 20
-1e+20
 30
-1e+20
  9
$LIMMIN
 10
0.0
 20
0.0
  9
$LIMMAX
 10
420.0
 20
297.0
  9
$ORTHOMODE
 70
0
  9
$REGENMODE
 70
1
  9
$FILLMODE
 70
1
  9
$QTEXTMODE
 70
0
  9
$MIRRTEXT
 70
1
  9
$LTSCALE
 40
1.0
  9
$ATTMODE
 70
1
  9
$TEXTSIZE
 40
2.5
  9
$TRACEWID
 40
1.0
  9
$TEXTSTYLE
  7
Standard
  9
$CLAYER
  8
0
  9
$CELTYPE
  6
ByLayer
  9
$CECOLOR
 62
256
  9
$CELTSCALE
 40
1.0
  9
$DISPSILH
 70
0
  9
$DIMSCALE
 40
1.0
  9
$DIMASZ
 40
2.5
  9
$DIMEXO
 40
0.625
  9
$DIMDLI
 40
3.75
  9
$DIMRND
 40
0.0
  9
$DIMDLE
 40
0.0
  9
$DIMEXE
 40
1.25
  9
$DIMTP
 40
0.0
  9
$DIMTM
 40
0.0
  9
$DIMTXT
 40
2.5
  9
$DIMCEN
 40
2.5
  9
$DIMTSZ
 40
0.0
  9
$DIMTOL
 70
0
  9
$DIMLIM
 70
0
  9
$DIMTIH
 70
0
  9
$DIMTOH
 70
0
  9
$DIMSE1
 70
0
  9
$DIMSE2
 70
0
  9
$DIMTAD
 70
1
  9
$DIMZIN
 70
8
  9
$DIMBLK
  1

  9
$DIMASO
 70
1
  9
$DIMSHO
 70
1
  9
$DIMPOST
  1

  9
$DIMAPOST
  1

  9
$DIMALT
 70
0
  9
$DIMALTD
 70
3
  9
$DIMALTF
 40
0.03937007874
  9
$DIMLFAC
 40
1.0
  9
$DIMTOFL
 70
1
  9
$DIMTVP
 40
0.0
  9
$DIMTIX
 70
0
  9
$DIMSOXD
 70
0
  9
$DIMSAH
 70
0
  9
$DIMBLK1
  1

  9
$DIMBLK2
  1

  9
$DIMSTYLE
  2
ISO-25
  9
$DIMCLRD
 70
0
  9
$DIMCLRE
 70
0
  9
$DIMCLRT
 70
0
  9
$DIMTFAC
 40
1.0
  9
$DIMGAP
 40
0.625
  9
$DIMJUST
 70
0
  9
$DIMSD1
 70
0
  9
$DIMSD2
 70
0
  9
$DIMTOLJ
 70
0
  9
$DIMTZIN
 70
8
  9
$DIMALTZ
 70
0
  9
$DIMALTTZ
 70
0
  9
$DIMUPT
 70
0
  9
$DIMDEC
 70
2
  9
$DIMTDEC
 70
2
  9
$DIMALTU
 70
2
  9
$DIMALTTD
 70
3
  9
$DIMTXSTY
  7
Standard
  9
$DIMAUNIT
 70
0
  9
$DIMADEC
 70
0
  9
$DIMALTRND
 40
0.0
  9
$DIMAZIN
 70
0
  9
$DIMDSEP
 70
44
  9
$DIMATFIT
 70
3
  9
$DIMFRAC
 70
0
  9
$DIMLDRBLK
  1

  9
$DIMLUNIT
 70
2
  9
$DIMLWD
 70
-2
  9
$DIMLWE
 70
-2
  9
$DIMTMOVE
 70
0
  9
$DIMFXL
 40
1.0
  9
$DIMFXLON
 70
0
  9
$DIMJOGANG
 40
0.785398163397
  9
$DIMTFILL
 70
0
  9
$DIMTFILLCLR
 70
0
  9
$DIMARCSYM
 70
0
  9
$DIMLTYPE
  6

  9
$DIMLTEX1
  6

  9
$DIMLTEX2
  6

  9
$DIMTXTDIRECTION
 70
0
  9
$LUNITS
 70
2
  9
$LUPREC
 70
4
  9
$SKETCHINC
 40
1.0
  9
$FILLETRAD
 40
10.0
  9
$AUNITS
 70
0
  9
$AUPREC
 70
2
  9
$MENU
  1
.
  9
$ELEVATION
 40
0.0
  9
$PELEVATION
 40
0.0
  9
$THICKNESS
 40
0.0
  9
$LIMCHECK
 70
0
  9
$CHAMFERA
 40
0.0
  9
$CHAMFERB
 40
0.0
  9
$CHAMFERC
 40
0.0
  9
$CHAMFERD
 40
0.0
  9
$SKPOLY
 70
0
  9
$TDCREATE
 40
2461280.7357060187
  9
$TDUCREATE
 40
2458532.153996898
  9
$TDUPDATE
 40
2461280.7357060187
  9
$TDUUPDATE
 40
2458532.1544311
  9
$TDINDWG
 40
0.0
  9
$TDUSRTIMER
 40
0.0
  9
$USRTIMER
 70
1
  9
$ANGBASE
 50
0.0
  9
$ANGDIR
 70
0
  9
$PDMODE
 70
0
  9
$PDSIZE
 40
0.0
  9
$PLINEWID
 40
0.0
  9
$SPLFRAME
 70
0
  9
$SPLINETYPE
 70
6
  9
$SPLINESEGS
 70
8
  9
$HANDSEED
  5
34
  9
$SURFTAB1
 70
6
  9
$SURFTAB2
 70
6
  9
$SURFTYPE
 70
6
  9
$SURFU
 70
6
  9
$SURFV
 70
6
  9
$UCSBASE
  2

  9
$UCSNAME
  2

  9
$UCSORG
 10
0.0
 20
0.0
 30
0.0
  9
$UCSXDIR
 10
1.0
 20
0.0
 30
0.0
  9
$UCSYDIR
 10
0.0
 20
1.0
 30
0.0
  9
$UCSORTHOREF
  2

  9
$UCSORTHOVIEW
 70
0
  9
$UCSORGTOP
 10
0.0
 20
0.0
 30
0.0
  9
$UCSORGBOTTOM
 10
0.0
 20
0.0
 30
0.0
  9
$UCSORGLEFT
 10
0.0
 20
0.0
 30
0.0
  9
$UCSORGRIGHT
 10
0.0
 20
0.0
 30
0.0
  9
$UCSORGFRONT
 10
0.0
 20
0.0
 30
0.0
  9
$UCSORGBACK
 10
0.0
 20
0.0
 30
0.0
  9
$PUCSBASE
  2

  9
$PUCSNAME
  2

  9
$PUCSORG
 10
0.0
 20
0.0
 30
0.0
  9
$PUCSXDIR
 10
1.0
 20
0.0
 30
0.0
  9
$PUCSYDIR
 10
0.0
 20
1.0
 30
0.0
  9
$PUCSORTHOREF
  2

  9
$PUCSORTHOVIEW
 70
0
  9
$PUCSORGTOP
 10
0.0
 20
0.0
 30
0.0
  9
$PUCSORGBOTTOM
 10
0.0
 20
0.0
 30
0.0
  9
$PUCSORGLEFT
 10
0.0
 20
0.0
 30
0.0
  9
$PUCSORGRIGHT
 10
0.0
 20
0.0
 30
0.0
  9
$PUCSORGFRONT
 10
0.0
 20
0.0
 30
0.0
  9
$PUCSORGBACK
 10
0.0
 20
0.0
 30
0.0
  9
$USERI1
 70
0
  9
$USERI2
 70
0
  9
$USERI3
 70
0
  9
$USERI4
 70
0
  9
$USERI5
 70
0
  9
$USERR1
 40
0.0
  9
$USERR2
 40
0.0
  9
$USERR3
 40
0.0
  9
$USERR4
 40
0.0
  9
$USERR5
 40
0.0
  9
$WORLDVIEW
 70
1
  9
$SHADEDGE
 70
3
  9
$SHADEDIF
 70
70
  9
$TILEMODE
 70
1
  9
$MAXACTVP
 70
64
  9
$PINSBASE
 10
0.0
 20
0.0
 30
0.0
  9
$PLIMCHECK
 70
0
  9
$PEXTMIN
 10
1e+20
 20
1e+20
 30
1e+20
  9
$PEXTMAX
 10
-1e+20
 20
-1e+20
 30
-1e+20
  9
$PLIMMIN
 10
0.0
 20
0.0
  9
$PLIMMAX
 10
420.0
 20
297.0
  9
$UNITMODE
 70
0
  9
$VISRETAIN
 70
1
  9
$PLINEGEN
 70
0
  9
$PSLTSCALE
 70
1
  9
$TREEDEPTH
 70
3020
  9
$CMLSTYLE
  2
Standard
  9
$CMLJUST
 70
0
  9
$CMLSCALE
 40
20.0
  9
$PROXYGRAPHICS
 70
1
  9
$MEASUREMENT
 70
1
  9
$CELWEIGHT
370
-1
  9
$ENDCAPS
280
0
  9
$JOINSTYLE
280
0
  9
$LWDISPLAY
290
0
  9
$INSUNITS
 70
4
  9
$HYPERLINKBASE
  1

  9
$STYLESHEET
  1

  9
$XEDIT
290
1
  9
$CEPSNTYPE
380
0
  9
$PSTYLEMODE
290
1
  9
$FINGERPRINTGUID
  2
{2790E452-B201-4D9D-B573-7339E023081F}
  9
$VERSIONGUID
  2
{94DF89C9-CC4D-4B27-935B-BC98B5D943BA}
  9
$EXTNAMES
290
1
  9
$PSVPSCALE
 40
0.0
  9
$OLESTARTUP
290
0
  9
$SORTENTS
280
127
  9
$INDEXCTL
280
0
  9
$HIDETEXT
280
1
  9
$XCLIPFRAME
280
1
  9
$HALOGAP
280
0
  9
$OBSCOLOR
 70
257
  9
$OBSLTYPE
280
0
  9
$INTERSECTIONDISPLAY
280
0
  9
$INTERSECTIONCOLOR
 70
257
  9
$DIMASSOC
280
2
  9
$PROJECTNAME
  1

  9
$CAMERADISPLAY
290
0
  9
$LENSLENGTH
 40
50.0
  9
$CAMERAHEIGHT
 40
0.0
  9
$STEPSPERSEC
 40
24.0
  9
$STEPSIZE
 40
100.0
  9
$3DDWFPREC
 40
2.0
  9
$PSOLWIDTH
 40
0.005
  9
$PSOLHEIGHT
 40
0.08
  9
$LOFTANG1
 40
1.570796326795
  9
$LOFTANG2
 40
1.570796326795
  9
$LOFTMAG1
 40
0.0
  9
$LOFTMAG2
 40
0.0
  9
$LOFTPARAM
 70
7
  9
$LOFTNORMALS
280
1
  9
$LATITUDE
 40
37.795
  9
$LONGITUDE
 40
-122.394
  9
$NORTHDIRECTION
 40
0.0
  9
$TIMEZONE
 70
-8000
  9
$LIGHTGLYPHDISPLAY
280
1
  9
$TILEMODELIGHTSYNCH
280
1
  9
$CMATERIAL
347
20
  9
$SOLIDHIST
280
0
  9
$SHOWHIST
280
1
  9
$DWFFRAME
280
2
  9
$DGNFRAME
280
2
  9
$REALWORLDSCALE
290
1
  9
$INTERFERECOLOR
 62
256
  9
$CSHADOW
280
0
  9
$SHADOWPLANELOCATION
 40
0.0
  0
ENDSEC
  0
SECTION
  2
CLASSES
  0
CLASS
  1
ACDBDICTIONARYWDFLT
  2
AcDbDictionaryWithDefault
  3
ObjectDBX Classes
 90
0
 91
0
280
0
281
0
  0
CLASS
  1
SUN
  2
AcDbSun
  3
SCENEOE
 90
1153
 91
0
280
0
281
0
  0
CLASS
  1
VISUALSTYLE
  2
AcDbVisualStyle
  3
ObjectDBX Classes
 90
4095
 91
0
280
0
281
0
  0
CLASS
  1
MATERIAL
  2
AcDbMaterial
  3
ObjectDBX Classes
 90
1153
 91
0
280
0
281
0
  0
CLASS
  1
SCALE
  2
AcDbScale
  3
ObjectDBX Classes
 90
1153
 91
0
280
0
281
0
  0
CLASS
  1
TABLESTYLE
  2
AcDbTableStyle
  3
ObjectDBX Classes
 90
4095
 91
0
280
0
281
0
  0
CLASS
  1
MLEADERSTYLE
  2
AcDbMLeaderStyle
  3
ACDB_MLEADERSTYLE_CLASS
 90
4095
 91
0
280
0
281
0
  0
CLASS
  1
DICTIONARYVAR
  2
AcDbDictionaryVar
  3
ObjectDBX Classes
 90
0
 91
0
280
0
281
0
  0
CLASS
  1
CELLSTYLEMAP
  2
AcDbCellStyleMap
  3
ObjectDBX Classes
 90
1152
 91
0
280
0
281
0
  0
CLASS
  1
MENTALRAYRENDERSETTINGS
  2
AcDbMentalRayRenderSettings
  3
SCENEOE
 90
1024
 91
0
280
0
281
0
  0
CLASS
  1
ACDBDETAILVIEWSTYLE
  2
AcDbDetailViewStyle
  3
ObjectDBX Classes
 90
1025
 91
0
280
0
281
0
  0
CLASS
  1
ACDBSECTIONVIEWSTYLE
  2
AcDbSectionViewStyle
  3
ObjectDBX Classes
 90
1025
 91
0
280
0
281
0
  0
CLASS
  1
RASTERVARIABLES
  2
AcDbRasterVariables
  3
ISM
 90
0
 91
0
280
0
281
0
  0
CLASS
  1
LAYOUT
  2
AcDbLayout
  3
ObjectDBX Classes
 90
0
 91
0
280
0
281
0
  0
CLASS
  1
ACDBPLACEHOLDER
  2
AcDbPlaceHolder
  3
ObjectDBX Classes
 90
0
 91
0
280
0
281
0
  0
ENDSEC
  0
SECTION
  2
TABLES
  0
TABLE
  2
VPORT
  5
8
330
0
100
AcDbSymbolTable
 70
1
  0
VPORT
  5
23
330
8
100
AcDbSymbolTableRecord
100
AcDbViewportTableRecord
  2
*Active
 70
0
 10
0.0
 20
0.0
 11
1.0
 21
1.0
 12
0.0
 22
0.0
 13
0.0
 23
0.0
 14
0.5
 24
0.5
 15
0.5
 25
0.5
 16
0.0
 26
0.0
 36
1.0
 17
0.0
 27
0.0
 37
0.0
 40
1000.0
 41
1.34
 42
50.0
 43
0.0
 44
0.0
 50
0.0
 51
0.0
 71
0
 72
1000
 73
1
 74
3
 75
0
 76
0
 77
0
 78
0
281
0
 65
0
146
0.0
  0
ENDTAB
  0
TABLE
  2
LTYPE
  5
2
330
0
100
AcDbSymbolTable
 70
3
  0
LTYPE
  5
24
330
2
100
AcDbSymbolTableRecord
100
AcDbLinetypeTableRecord
  2
ByBlock
 70
0
  3

 72
65
 73
0
 40
0.0
  0
LTYPE
  5
25
330
2
100
AcDbSymbolTableRecord
100
AcDbLinetypeTableRecord
  2
ByLayer
 70
0
  3

 72
65
 73
0
 40
0.0
  0
LTYPE
  5
26
330
2
100
AcDbSymbolTableRecord
100
AcDbLinetypeTableRecord
  2
Continuous
 70
0
  3

 72
65
 73
0
 40
0.0
  0
ENDTAB
  0
TABLE
  2
LAYER
  5
1
330
0
100
AcDbSymbolTable
 70
3
  0
LAYER
  5
27
330
1
100
AcDbSymbolTableRecord
100
AcDbLayerTableRecord
  2
0
 70
0
 62
7
  6
Continuous
370
-3
390
13
347
21
  0
LAYER
  5
28
330
1
100
AcDbSymbolTableRecord
100
AcDbLayerTableRecord
  2
Defpoints
 70
0
 62
7
  6
Continuous
290
0
370
-3
390
13
347
21
  0
LAYER
  5
2F
330
1
100
AcDbSymbolTableRecord
100
AcDbLayerTableRecord
  2
SPIRAL
 70
0
 62
1
  6
Continuous
370
-3
390
13
347
21
  0
ENDTAB
  0
TABLE
  2
STYLE
  5
5
330
0
100
AcDbSymbolTable
 70
1
  0
STYLE
  5
29
330
5
100
AcDbSymbolTableRecord
100
AcDbTextStyleTableRecord
  2
Standard
 70
0
 40
0.0
 41
1.0
 50
0.0
 71
0
 42
2.5
  3
txt
  4

  0
ENDTAB
  0
TABLE
  2
VIEW
  5
7
330
0
100
AcDbSymbolTable
 70
0
  0
ENDTAB
  0
TABLE
  2
UCS
  5
6
330
0
100
AcDbSymbolTable
 70
0
  0
ENDTAB
  0
TABLE
  2
APPID
  5
3
330
0
100
AcDbSymbolTable
 70
3
  0
APPID
  5
2A
330
3
100
AcDbSymbolTableRecord
100
AcDbRegAppTableRecord
  2
ACAD
 70
0
  0
APPID
  5
31
330
3
100
AcDbSymbolTableRecord
100
AcDbRegAppTableRecord
  2
HATCHBACKGROUNDCOLOR
 70
0
  0
APPID
  5
32
330
3
100
AcDbSymbolTableRecord
100
AcDbRegAppTableRecord
  2
EZDXF
 70
0
  0
ENDTAB
  0
TABLE
  2
DIMSTYLE
  5
4
330
0
100
AcDbSymbolTable
 70
1
100
AcDbDimStyleTable
  0
DIMSTYLE
105
2B
330
4
100
AcDbSymbolTableRecord
100
AcDbDimStyleTableRecord
  2
Standard
 70
0
 40
1.0
 41
2.5
 42
0.625
 43
3.75
 44
1.25
 45
0.0
 46
0.0
 47
0.0
 48
0.0
 49
2.5
140
2.5
141
2.5
142
0.0
143
0.03937007874
144
1.0
145
0.0
146
1.0
147
0.625
148
0.0
 69
0
 70
0
 71
0
 72
0
 73
0
 74
0
 75
0
 76
0
 77
1
 78
8
 79
3
170
0
171
3
172
1
173
0
174
0
175
0
176
0
177
0
178
0
179
2
271
2
272
2
273
2
274
3
275
0
276
0
277
2
278
44
279
0
280
0
281
0
282
0
283
0
284
8
285
0
286
0
288
0
289
3
290
0
371
-2
372
-2
  0
ENDTAB
  0
TABLE
  2
BLOCK_RECORD
  5
9
330
0
100
AcDbSymbolTable
 70
2
  0
BLOCK_RECORD
  5
17
330
9
100
AcDbSymbolTableRecord
100
AcDbBlockTableRecord
  2
*Model_Space
340
1A
 70
0
280
1
281
0
  0
BLOCK_RECORD
  5
1B
330
9
100
AcDbSymbolTableRecord
100
AcDbBlockTableRecord
  2
*Paper_Space
340
1E
 70
0
280
1
281
0
  0
ENDTAB
  0
ENDSEC
  0
SECTION
  2
BLOCKS
  0
BLOCK
  5
18
330
17
100
AcDbEntity
  8
0
100
AcDbBlockBegin
  2
*Model_Space
 70
0
 10
0.0
 20
0.0
 30
0.0
  3
*Model_Space
  1

  0
ENDBLK
  5
19
330
17
100
AcDbEntity
  8
0
100
AcDbBlockEnd
  0
BLOCK
  5
1C
330
1B
100
AcDbEntity
  8
0
100
AcDbBlockBegin
  2
*Paper_Space
 70
0
 10
0.0
 20
0.0
 30
0.0
  3
*Paper_Space
  1

  0
ENDBLK
  5
1D
330
1B
100
AcDbEntity
  8
0
100
AcDbBlockEnd
  0
ENDSEC
  0
SECTION
  2
ENTITIES
  0
LWPOLYLINE
  5
30
330
17
100
AcDbEntity
  8
SPIRAL
100
AcDbPolyline
 90
385
 70
0
 10
0.0
 20
0.0
 10
0.029691708088017757
 20
0.003908987527423419
 10
0.05785493230377232
 20
0.015502182388953064
 10
0.08300480174906091
 20
0.034381714626551034
 10
0.10374262649501088
 20
0.05989583333333332
 10
0.11879639861131777
 20
0.09115568272917042
 10
0.12705824974445776
 20
0.12705824974445776
 10
0.1276179558208386
 20
0.1663149580558449
 10
0.11979166666666669
 20
0.20748525299002174
 10
0.10314514387965312
 20
0.24901440524718274
 10
0.07751091194476534
 20
0.2892746615188616
 10
0.042998862801657656
 20
0.32660878896819534
 10
2.2005372172179003e-17
 20
0.359375
 10
-0.05081683785650437
 20
0.3859922051442309
 10
-0.10851527672267151
 20
0.4049845261264063
 10
-0.17190857313275515
 20
0.4150240087453046
 10
-0.2395833333333332
 20
0.41497050598004354
 10
-0.30992932127917944
 20
0.40390775527848044
 10
-0.38117474923337324
 20
0.3811747492333733
 10
-0.4514263147230074
 20
0.34639159437084766
 10
-0.5187131324750545
 20
0.29947916666666663
 10
-0.5810336122434264
 20
0.24067200238585731
 10
-0.6364042553414955
 20
0.17052400627848388
 10
-0.6829092860244085
 20
0.08990671313073866
 10
-0.71875
 20
8.802148868871601e-17
 10
-0.7422927022004441
 20
-0.09772468818558565
 10
-0.7521141199490402
 20
-0.20152837105638952
 10
-0.7470432157415483
 20
-0.3094354316389592
 10
-0.7261983854650762
 20
-0.4192708333333335
 10
-0.6890191119456431
 20
-0.528702959829188
 10
-0.6352912487222889
 20
-0.6352912487222887
 10
-0.5651652329208569
 20
-0.73653767139017
 10
-0.4791666666666671
 20
-0.8299410119600868
 10
-0.37819886089206195
 20
-0.9130528192396699
 10
-0.26353710061220204
 20
-0.9835338491641296
 10
-0.13681456345981974
 20
-1.0392097830806215
 10
-1.9804834954961102e-16
 20
-1.078125
 10
0.1446325385146662
 20
-1.0985931992566573
 10
0.2945414653901077
 20
-1.0992437137716742
 10
0.4469622901451637
 20
-1.0790624227377918
 10
0.5989583333333335
 20
-1.0374262649501087
 10
0.7474765983791972
 20
-0.9741304686128056
 10
0.889407748211204
 20
-0.8894077482112045
 10
1.0216490280573325
 20
-0.783938871470866
 10
1.1411688914451192
 20
-0.6588541666666672
 10
1.2450720262359134
 20
-0.5157257193982664
 10
1.3306634429867634
 20
-0.35655019494592044
 10
1.3955102801368346
 20
-0.18372241378890086
 10
1.4375
 20
-3.5208595475486404e-16
 10
1.4548936963128702
 20
0.19154038884374697
 10
1.446373307594308
 20
0.3875545597238272
 10
1.4110816297340356
 20
0.5844891486513678
 10
1.3486541444351419
 20
0.7786458333333321
 10
1.2592418252799686
 20
0.9662502369292063
 10
1.1435242477001202
 20
1.1435242477001195
 10
1.002712510020875
 20
1.3067603847244949
 10
0.8385416666666663
 20
1.4523967709301526
 10
0.6532525779044708
 20
1.5770912332321572
 10
0.4495632892796404
 20
1.6777930368093967
 10
0.23063026411798207
 20
1.751810777193048
 10
5.501343043044751e-16
 20
1.796875
 10
-0.23844823917282776
 20
1.8111941933690834
 10
-0.48056765405754404
 20
1.7935029014169424
 10
-0.722016007157572
 20
1.7431008367302794
 10
-0.9583333333333318
 20
1.6598820239201748
 10
-1.185023875479215
 20
1.5443531819471312
 10
-1.3976407471890337
 20
1.397640747189037
 10
-1.5918717413916572
 20
1.2214861485708841
 10
-1.7636246504151853
 20
1.0182291666666663
 10
-1.9091104402284005
 20
0.7907794364106753
 10
-2.024922630632031
 20
0.5425763836133574
 10
-2.108111274249261
 20
0.27753811444706145
 10
-2.15625
 20
7.921933981984441e-16
 10
-2.1674946904252965
 20
-0.28535608950190655
 10
-2.140632495239576
 20
-0.573580748391262
 10
-2.075120043726523
 20
-0.859542865663776
 10
-1.9711099034052078
 20
-1.1380208333333313
 10
-1.829464538614294
 20
-1.4037975140292238
 10
-1.65175724667795
 20
-1.6517572466779518
 10
-1.4402597871208935
 20
-1.8769830980588198
 10
-1.1979166666666663
 20
-2.074852529900218
 10
-0.9283062949168799
 20
-2.241129647224644
 10
-0.635589477947076
 20
-2.372052224454665
 10
-0.3244459647761424
 20
-2.4644117713054743
 10
-1.0782632364367712e-15
 20
-2.515625
 10
0.33226393983098695
 20
-2.52379518748151
 10
0.6665938427249801
 20
-2.48776208906221
 10
0.99706972416998
 20
-2.4071392507227665
 10
1.3177083333333308
 20
-2.2823377828902407
 10
1.6225711525792328
 20
-2.114575895281457
 10
1.9058737461668638
 20
-1.9058737461668689
 10
2.1620944547259824
 20
-1.6590334256709025
 10
2.3860804093852503
 20
-1.3776041666666665
 10
2.5731488542208876
 20
-1.0658331534230845
 10
2.7191818182772987
 20
-0.7286025722807946
 10
2.8207122683616874
 20
-0.37135381510522336
 10
2.875
 20
-1.4083438190194562e-15
 10
2.880095684537723
 20
0.37917179016007246
 10
2.834891682884844
 20
0.759606937058698
 10
2.7391584577190105
 20
1.134596582676184
 10
2.593565662375271
 20
1.497395833333335
 10
2.3996872519486225
 20
1.841344791129237
 10
2.159990245655781
 20
2.159990245655783
 10
1.877807064220908
 20
2.447205811393148
 10
1.557291666666671
 20
2.69730828887028
 10
1.203360011929289
 20
2.905168061217131
 10
0.8216156666145135
 20
3.066311412099933
 10
0.41826166543431004
 20
3.1770127654178997
 10
1.7824351459464993e-15
 20
3.234375
 10
-0.4260796404891534
 20
3.236396181593936
 10
-0.8526200313924157
 20
3.182021276707478
 10
-1.2721234411823878
 20
3.0711776647152544
 10
-1.6770833333333353
 20
2.904793541860304
 10
-2.060118429679245
 20
2.6847986086157856
 10
-2.414106745144694
 20
2.414106745144701
 10
-2.732317168060311
 20
2.0965807027709165
 10
-3.008536168355312
 20
1.7369791666666718
 10
-3.2371872682133747
 20
1.3408868704354937
 10
-3.4134410059225666
 20
0.9146287609482321
 10
-3.533313262474113
 20
0.4651695157633917
 10
-3.59375
 20
2.2005372172179003e-15
 10
-3.592696678650149
 20
-0.4729874908182343
 10
-3.529150870530112
 20
-0.9456331257261337
 10
-3.4031968717115006
 20
-1.4096502996885858
 10
-3.21602142134534
 20
-1.8567708333333295
 10
-2.969909965282945
 20
-2.2788920682292586
 10
-2.6682232446336123
 20
-2.6682232446336136
 10
-2.3153543413209254
 20
-3.0174285247274737
 10
-1.9166666666666725
 20
-3.3197640478403443
 10
-1.4784137289416983
 20
-3.5692064752096178
 10
-1.0076418552819508
 20
-3.7605705997452006
 10
-0.5120773660924803
 20
-3.8896137595303246
 10
-9.684810663587774e-15
 20
-3.953125
 10
0.5198953411473222
 20
-3.9489971757063613
 10
1.0386462200598514
 20
-3.876280464352746
 10
1.5471771581947957
 20
-3.735216078707742
 10
2.0364583333333353
 20
-3.527249300830369
 10
2.4976657067792614
 20
-3.2550213219501125
 10
2.9223397441225236
 20
-2.9223397441225334
 10
3.302539881394632
 20
-2.53412797987094
 10
3.6309919273253803
 20
-2.096354166666667
 10
3.901225682205864
 20
-1.6159405874478963
 10
4.107700193567837
 20
-1.1006549496156623
 10
4.245914256586539
 20
-0.5589852164215553
 10
4.3125
 20
-3.1687735927937763e-15
 10
4.305297672762575
 20
0.566803191476396
 10
4.223410058175382
 20
1.1316593143935618
 10
4.067235285703989
 20
1.6847040167009921
 10
3.8384771803154054
 20
2.216145833333328
 10
3.5401326786172707
 20
2.7164393453292757
 10
3.176456243611444
 20
3.1764562436114443
 10
2.7529016184209434
 20
3.5876512380617993
 10
2.276041666666674
 20
3.942219806810409
 10
1.753467445954108
 20
4.233244889202105
 10
1.1936680439493883
 20
4.4548297873904685
 10
0.6058930667506454
 20
4.60221475364275
 10
-4.5800092119747936e-15
 20
4.671875
 10
-0.613711041805485
 20
4.661598169818787
 10
-1.224672408727287
 20
4.570539651998014
 10
-1.8222308752072032
 20
4.399254492700229
 10
-2.3958333333333353
 20
4.149705059800435
 10
-2.9352129838792775
 20
3.8252440352844386
 10
-3.430572743100354
 20
3.4305727431003654
 10
-3.8727625947289566
 20
2.9716752569709595
 10
-4.253447686295445
 20
2.4557291666666674
 10
-4.5652640961983515
 20
1.8909943044603048
 10
-4.801959381213105
 20
1.2866811382830987
 10
-4.958515250698964
 20
0.6528009170797191
 10
-5.03125
 20
4.313052945747085e-15
 10
-5.017898666875001
 20
-0.6606188921345574
 10
-4.917669245820651
 20
-1.317685503060996
 10
-4.731273699696477
 20
-1.9597577337133985
 10
-4.460932939285472
 20
-2.575520833333327
 10
-4.110355391951597
 20
-3.153986622429293
 10
-3.6846892425892754
 20
-3.6846892425892754
 10
-3.190448895520962
 20
-4.157873951396124
 10
-2.635416666666676
 20
-4.5646755657804725
 10
-2.0285211629665176
 20
-4.897283303194592
 10
-1.3796942326168262
 20
-5.149088975035736
 10
-0.6997087674088104
 20
-5.314815747755176
 10
-1.452688232613225e-14
 20
-5.390625
 10
0.7075267424636477
 20
-5.374199163931213
 10
1.4106985973947226
 20
-5.264798839643283
 10
2.097284592219611
 20
-5.063292906692717
 10
2.755208333333335
 20
-4.7721608187705
 10
3.3727602609792933
 20
-4.395466748618766
 10
3.9388057420781832
 20
-3.9388057420781974
 10
4.442985308063281
 20
-3.4092225340709783
 10
4.87590344526551
 20
-2.8151041666666683
 10
5.229302510190839
 20
-2.1660480214727134
 10
5.496218568858372
 20
-1.4727073269505353
 10
5.67111624481139
 20
-0.7466166177378829
 10
5.75
 20
-5.633375276077825e-15
 10
5.73049966098743
 20
0.7544345927926982
 10
5.611928433465915
 20
1.5037116917284503
 10
5.395312113688965
 20
2.234811450725805
 10
5.083388698255537
 20
2.934895833333325
 10
4.680578105285924
 20
3.5915338995293107
 10
4.192922241567106
 20
4.192922241567105
 10
3.6279961726209957
 20
4.728096664730436
 10
2.99479166666666
 20
5.187131324750548
 10
2.3035748799789273
 20
5.561321717187078
 10
1.5657204212842846
 20
5.843348162680997
 10
0.7935244680669544
 20
6.027416741867605
 10
-4.492877507951173e-15
 20
6.109375
 10
-0.8013424431217883
 20
6.086800158043642
 10
-1.5967247860621792
 20
5.959058027288546
 10
-2.372338309232018
 20
5.727331320685205
 10
-3.1145833333333144
 20
5.394616577740576
 10
-3.8103075380793276
 20
4.96568946195308
 10
-4.447038741056013
 20
4.44703874105603
 10
-5.013208021397604
 20
3.846769811170997
 10
-5.498359204235576
 20
3.1744791666666696
 10
-5.893340924183326
 20
2.441101738485122
 10
-6.1904777565036335
 20
1.6587335156179939
 10
-6.38371723892382
 20
0.8404323183960244
 10
-6.46875
 20
7.129740583785997e-15
 10
-6.443100655099856
 20
-0.8482502934508569
 10
-6.3061876211111825
 20
-1.6897378803958867
 10
-6.059350527681453
 20
-2.5098651677382104
 10
-5.705844457225603
 20
-3.2942708333333233
 10
-5.25080081862025
 20
-4.029081176629328
 10
-4.701155240544938
 20
-4.701155240544936
 10
-4.065543449721016
 20
-5.298319378064759
 10
-3.35416666666666
 20
-5.809587083720614
 10
-2.5786285969913374
 20
-6.225360131179565
 10
-1.7517466099517252
 20
-6.5376073503262635
 10
-0.8873401687251172
 20
-6.7400177359800315
 10
-2.0073125898186455e-14
 20
-6.828125
 10
0.8951581437799482
 20
-6.799401152156069
 10
1.7827509747296169
 20
-6.653317214933813
 10
2.6473920262444253
 20
-6.391369734677693
 10
3.4739583333333117
 20
-6.017072336710642
 10
4.247854815179346
 20
-5.535912175287406
 10
4.955271740033842
 20
-4.955271740033863
 10
5.583430734731929
 20
-4.284317088271016
 10
6.120814963205641
 20
-3.533854166666671
 10
6.557379338175814
 20
-2.716155455497531
 10
6.8847369441489
 20
-1.8447597042854331
 10
7.096318233036246
 20
-0.9342480190541862
 10
7.1875
 20
-8.802148868871601e-15
 10
7.155701649212284
 20
0.9420659941090151
 10
7.00044680875645
 20
1.875764069063323
 10
6.723388941673941
 20
2.7849188847506166
 10
6.32830021619567
 20
3.6536458333333215
 10
5.821023531954576
 20
4.466628453729344
 10
5.209388239522789
 20
5.209388239522748
 10
4.503090726821015
 20
5.868542091399099
 10
3.7135416666666825
 20
6.432042842690666
 10
2.853682314003723
 20
6.889398545172062
 10
1.93777279861914
 20
7.231866537971537
 10
0.9811558693832537
 20
7.452618730092461
 10
-3.701573894417825e-15
 20
7.546875
 10
-0.9889738444381078
 20
7.512002146268495
 10
-1.968777163397054
 20
7.347576402579081
 10
-2.9224457432568323
 20
7.055408148670181
 10
-3.8333333333333086
 20
6.63952809568071
 10
-4.685402092279363
 20
6.106134888621731
 10
-5.463504739011671
 20
5.463504739011695
 10
-6.153653448066237
 20
4.721864365371058
 10
-6.743270722175705
 20
3.8932291666666723
 10
-7.221417752168289
 20
2.9912091725099654
 10
-7.5789961317941605
 20
2.0307858929529
 10
-7.808919227148669
 20
1.0280637197123759
 10
-7.90625
 20
3.8739242654351095e-14
 10
-7.868302643324706
 20
-1.0358816947672014
 10
-7.694705996401711
 20
-2.0617902577307863
 10
-7.387427355666419
 20
-3.0599726017630484
 10
-6.950755975165736
 20
-4.013020833333319
 10
-6.391246245288885
 20
-4.904175730829383
 10
-5.717621238500602
 20
-5.717621238500596
 10
-4.940638003921057
 20
-6.438764804733406
 10
-4.07291666666666
 20
-7.054498601660744
 10
-3.1287360310161576
 20
-7.5534369591645385
 10
-2.1237989872866065
 20
-7.926125725616798
 10
-1.0749715700414437
 20
-8.165219724204885
 10
-2.6323541379750387e-14
 20
-8.265625
 10
1.082789545096238
 20
-8.224603140380925
 10
2.1548033520644627
 20
-8.041835590224357
 10
3.197499460269211
 20
-7.7194465626626805
 10
4.192708333333331
 20
-7.2619838546507625
 10
5.122949369379357
 20
-6.676357601956075
 10
5.971737737989522
 20
-5.971737737989508
 10
6.723876161400576
 20
-5.159411642471055
 10
7.365726481145785
 20
-4.252604166666647
 10
7.885456166160787
 20
-3.2662628895223493
 10
8.273255319439434
 20
-2.2168120816203127
 10
8.521520221261099
 20
-1.12187942037051
 10
8.625
 20
-1.2675094371175105e-14
 10
8.580903637437137
 20
1.1296973954253315
 10
8.388965184046986
 20
2.2478164463981947
 10
8.051465769658918
 20
3.335026318775428
 10
7.5732117341358185
 20
4.37239583333329
 10
6.961468958623229
 20
5.341723007929376
 10
6.225854237478456
 20
6.225854237478404
 10
5.378185281021053
 20
7.008987518067749
 10
4.432291666666687
 20
7.676954360630793
 10
3.4037897480285393
 20
8.217475373157036
 10
2.3098251759540176
 20
8.620384913262072
 10
1.1687872706995754
 20
8.877820718317315
 10
-2.2060983713747487e-15
 20
8.984375
 10
-1.1766052457544265
 20
8.937204134493347
 10
-2.340829540731928
 20
8.736094777869617
 10
-3.472553177281645
 20
8.383484976655156
 10
-4.552083333333302
 20
7.884439613620844
 10
-5.560496646479399
 20
7.246580315290382
 10
-6.47997073696733
 20
6.479970736967362
 10
-7.294098874734881
 20
5.596958919571102
 10
-7.988182240115834
 20
4.611979166666675
 10
-8.549494580153262
 20
3.541316606534789
 10
-8.967514507084692
 20
2.4028382702877846
 10
-9.234121215373522
 20
1.2156951210287053
 10
-9.34375
 20
-1.8320036847899174e-14
 10
-9.29350463154956
 20
-1.2235130960835223
 10
-9.083224371692246
 20
-2.4338426350656626
 10
-8.715504183651394
 20
-3.6100800357878637
 10
-8.19566749310587
 20
-4.731770833333315
 10
-7.531691671957535
 20
-5.77927028502942
 10
-6.734087236456266
 20
-6.734087236456256
 10
-5.815732558121098
 20
-7.579210231402053
 10
-4.791666666666661
 20
-8.299410119600875
 10
-3.6788434650409787
 20
-8.88151378714951
 10
-2.4958513646214895
 20
-9.31464410090733
 10
-1.2626029713577707
 20
-9.590421712429738
 10
-3.327812877082405e-14
 20
-9.703125
 10
1.270420946412551
 20
-9.649805128605779
 10
2.5268557293993315
 20
-9.430353965514893
 10
3.7476068942940195
 20
-9.047523390647658
 10
4.911458333333329
 20
-8.506895372590895
 10
5.998043923579387
 20
-7.816803028624729
 10
6.988203735945183
 20
-6.988203735945169
 10
7.864321588069225
 20
-6.034506196671095
 10
8.610637999085915
 20
-4.971354166666646
 10
9.21353299414576
 20
-3.816370323547168
 10
9.661773694729968
 20
-2.588864458955193
 10
9.946722209485952
 20
-1.3095108216868347
 10
10.0625
 20
-1.725221178298834e-14
 10
10.006105625661991
 20
1.3173287967416472
 10
9.777483559337522
 20
2.619868823733066
 10
9.379542597643896
 20
3.8851337528002383
 10
8.818123252075955
 20
5.091145833333281
 10
8.101914385291883
 20
6.216817562129409
 10
7.242320235434125
 20
7.24232023543406
 10
6.2532798352210905
 20
8.149432944736397
 10
5.151041666666694
 20
8.921865878570921
 10
3.953897182053356
 20
9.54555220114201
 10
2.681877553288895
 20
10.008903288552606
 10
1.3564186720158977
 20
10.303022706542167
 10
-6.45093882194429e-18
 20
10.421875
 10
-1.3642366470707443
 20
10.362406122718202
 10
-2.7128819180668016
 20
10.124613153160151
 10
-4.022660611306458
 20
9.711561804640134
 10
-5.270833333333295
 20
9.129351131560979
 10
-6.435591200679433
 20
8.387025741959034
 10
-7.496436734922988
 20
7.496436734923028
 10
-8.434544301403525
 20
6.472053473771145
 10
-9.233093758055963
 20
5.3307291666666785
 10
-9.877571408138232
 20
4.0914240405596125
 10
-10.356032882375226
 20
2.77489064762267
 10
-10.659323203598372
 20
1.4033265223450355
 10
-10.78125
 20
5.8107529304529e-14
 10
-10.718706619774412
 20
-1.4111444973998426
 10
-10.47174274698278
 20
-2.805895012400539
 10
-10.04358101163637
 20
-4.160187469812679
 10
-9.440579011046003
 20
-5.45052083333331
 10
-8.672137098626186
 20
-6.654364839229456
 10
-7.750553234411931
 20
-7.750553234411916
 10
-6.6908271123211405
 20
-8.719655658070698
 10
-5.510416666666662
 20
-9.544321637541005
 10
-4.228950899065802
 20
-10.209590615134482
 10
-2.8679037419563724
 20
-10.703162476197864
 10
-1.4502343726740983
 20
-11.015623700654588
 10
-4.0936888071407436e-14
 20
-11.140625
 10
1.4580523477288638
 20
-11.075007116830633
 10
2.8989081067341997
 20
-10.81887234080543
 10
4.297714328318827
 20
-10.375600218632636
 10
5.630208333333326
 20
-9.751806890531027
 10
6.873138477779417
 20
-8.957248455293383
 10
8.004669733900844
 20
-8.004669733900833
 10
9.004767014737872
 20
-6.909600750871135
 10
9.855549517026047
 20
-5.690104166666646
 10
10.541609822130734
 20
-4.366477757571988
 10
11.050292070020502
 20
-2.9609168362900733
 10
11.371924197710804
 20
-1.4971422230031601
 10
11.5
 20
-2.25335011043113e-14
  0
ENDSEC
  0
SECTION
  2
OBJECTS
  0
DICTIONARY
  5
A
330
0
100
AcDbDictionary
281
1
  3
ACAD_COLOR
350
B
  3
ACAD_GROUP
350
C
  3
ACAD_LAYOUT
350
D
  3
ACAD_MATERIAL
350
E
  3
ACAD_MLEADERSTYLE
350
F
  3
ACAD_MLINESTYLE
350
10
  3
ACAD_PLOTSETTINGS
350
11
  3
ACAD_PLOTSTYLENAME
350
12
  3
ACAD_SCALELIST
350
14
  3
ACAD_TABLESTYLE
350
15
  3
ACAD_VISUALSTYLE
350
16
  3
EZDXF_META
350
2D
  0
DICTIONARY
  5
B
330
A
100
AcDbDictionary
281
1
  0
DICTIONARY
  5
C
330
A
100
AcDbDictionary
281
1
  0
DICTIONARY
  5
D
330
A
100
AcDbDictionary
281
1
  3
Model
350
1A
  3
Layout1
350
1E
  0
DICTIONARY
  5
E
330
A
100
AcDbDictionary
281
1
  3
ByBlock
350
1F
  3
ByLayer
350
20
  3
Global
350
21
  0
DICTIONARY
  5
F
330
A
100
AcDbDictionary
281
1
  3
Standard
350
2C
  0
DICTIONARY
  5
10
330
A
100
AcDbDictionary
281
1
  3
Standard
350
22
  0
DICTIONARY
  5
11
330
A
100
AcDbDictionary
281
1
  0
ACDBDICTIONARYWDFLT
  5
12
330
A
100
AcDbDictionary
281
1
  3
Normal
350
13
100
AcDbDictionaryWithDefault
340
13
  0
ACDBPLACEHOLDER
  5
13
330
12
  0
DICTIONARY
  5
14
330
A
100
AcDbDictionary
281
1
  0
DICTIONARY
  5
15
330
A
100
AcDbDictionary
281
1
  0
DICTIONARY
  5
16
330
A
100
AcDbDictionary
281
1
  0
LAYOUT
  5
1A
330
D
100
AcDbPlotSettings
  1

  4
A3
  6

 40
7.5
 41
20.0
 42
7.5
 43
20.0
 44
420.0
 45
297.0
 46
0.0
 47
0.0
 48
0.0
 49
0.0
140
0.0
141
0.0
142
1.0
143
1.0
 70
1024
 72
1
 73
0
 74
5
  7

 75
16
 76
0
 77
2
 78
300
147
1.0
148
0.0
149
0.0
100
AcDbLayout
  1
Model
 70
1
 71
0
 10
0.0
 20
0.0
 11
420.0
 21
297.0
 12
0.0
 22
0.0
 32
0.0
 14
1e+20
 24
1e+20
 34
1e+20
 15
-1e+20
 25
-1e+20
 35
-1e+20
146
0.0
 13
0.0
 23
0.0
 33
0.0
 16
1.0
 26
0.0
 36
0.0
 17
0.0
 27
1.0
 37
0.0
 76
1
330
17
  0
LAYOUT
  5
1E
330
D
100
AcDbPlotSettings
  1

  4
A3
  6

 40
7.5
 41
20.0
 42
7.5
 43
20.0
 44
420.0
 45
297.0
 46
0.0
 47
0.0
 48
0.0
 49
0.0
140
0.0
141
0.0
142
1.0
143
1.0
 70
0
 72
1
 73
0
 74
5
  7

 75
16
 76
0
 77
2
 78
300
147
1.0
148
0.0
149
0.0
100
AcDbLayout
  1
Layout1
 70
1
 71
1
 10
0.0
 20
0.0
 11
420.0
 21
297.0
 12
0.0
 22
0.0
 32
0.0
 14
1e+20
 24
1e+20
 34
1e+20
 15
-1e+20
 25
-1e+20
 35
-1e+20
146
0.0
 13
0.0
 23
0.0
 33
0.0
 16
1.0
 26
0.0
 36
0.0
 17
0.0
 27
1.0
 37
0.0
 76
1
330
1B
  0
MATERIAL
  5
1F
102
{ACAD_REACTORS
330
E
102
}
330
E
100
AcDbMaterial
  1
ByBlock
  2

 70
0
 40
1.0
 71
1
 41
1.0
 91
-1023410177
 42
1.0
 72
1
  3

 73
1
 74
1
 75
1
 44
0.5
 73
0
 45
1.0
 46
1.0
 77
1
  4

 78
1
 79
1
170
1
 48
1.0
171
1
  6

172
1
173
1
174
1
140
1.0
141
1.0
175
1
  7

176
1
177
1
178
1
143
1.0
179
1
  8

270
1
271
1
272
1
145
1.0
146
1.0
273
1
  9

274
1
275
1
276
1
 42
1.0
 72
1
  3

 73
1
 74
1
 75
1
 94
63
  0
MATERIAL
  5
20
102
{ACAD_REACTORS
330
E
102
}
330
E
100
AcDbMaterial
  1
ByLayer
  2

 70
0
 40
1.0
 71
1
 41
1.0
 91
-1023410177
 42
1.0
 72
1
  3

 73
1
 74
1
 75
1
 44
0.5
 73
0
 45
1.0
 46
1.0
 77
1
  4

 78
1
 79
1
170
1
 48
1.0
171
1
  6

172
1
173
1
174
1
140
1.0
141
1.0
175
1
  7

176
1
177
1
178
1
143
1.0
179
1
  8

270
1
271
1
272
1
145
1.0
146
1.0
273
1
  9

274
1
275
1
276
1
 42
1.0
 72
1
  3

 73
1
 74
1
 75
1
 94
63
  0
MATERIAL
  5
21
102
{ACAD_REACTORS
330
E
102
}
330
E
100
AcDbMaterial
  1
Global
  2

 70
0
 40
1.0
 71
1
 41
1.0
 91
-1023410177
 42
1.0
 72
1
  3

 73
1
 74
1
 75
1
 44
0.5
 73
0
 45
1.0
 46
1.0
 77
1
  4

 78
1
 79
1
170
1
 48
1.0
171
1
  6

172
1
173
1
174
1
140
1.0
141
1.0
175
1
  7

176
1
177
1
178
1
143
1.0
179
1
  8

270
1
271
1
272
1
145
1.0
146
1.0
273
1
  9

274
1
275
1
276
1
 42
1.0
 72
1
  3

 73
1
 74
1
 75
1
 94
63
  0
MLINESTYLE
  5
22
102
{ACAD_REACTORS
330
10
102
}
330
10
100
AcDbMlineStyle
  2
Standard
 70
0
  3

 62
256
 51
90.0
 52
90.0
 71
2
 49
0.5
 62
256
  6
BYLAYER
 49
-0.5
 62
256
  6
BYLAYER
  0
MLEADERSTYLE
  5
2C
102
{ACAD_REACTORS
330
F
102
}
330
F
100
AcDbMLeaderStyle
179
2
170
2
171
1
172
0
 90
2
 40
0.0
 41
0.0
173
1
 91
-1056964608
 92
-2
290
1
 42
2.0
291
1
 43
8.0
  3
Standard
 44
4.0
300

342
29
174
1
175
1
176
0
178
1
 93
-1056964608
 45
4.0
292
0
297
0
 46
4.0
 94
-1056964608
 47
1.0
 49
1.0
140
1.0
294
1
141
0.0
177
0
142
1.0
295
0
296
0
143
3.75
271
0
272
9
273
9
  0
DICTIONARY
  5
2D
330
A
100
AcDbDictionary
280
1
281
1
  3
CREATED_BY_EZDXF
350
2E
  3
WRITTEN_BY_EZDXF
350
33
  0
DICTIONARYVAR
  5
2E
330
2D
100
DictionaryVariables
280
0
  1
1.4.4 @ 2026-08-27T08:39:25.289297+00:00
  0
DICTIONARYVAR
  5
33
330
2D
100
DictionaryVariables
280
0
  1
1.4.4 @ 2026-08-27T08:39:25.330267+00:00
  0
ENDSEC
  0
EOF
